# xmcd
#
# Track frame offsets: 
#        182
#        11355
#        25405
#        40850
#        54222
#        63160
#        77862
#        89027
#        103915
#        120910
#
# Disc length: 1850 seconds
#
# Revision: 6
# Processed by: cddbd v1.5.2PL0 Copyright (c) Steve Scherf et al.
# Submitted via: ExactAudioCopy v0.95a5
#
DISCID=7507380a
DTITLE=Skaggs, Ricky - Solid ground
DYEAR=1995
DGENRE=Country
TTITLE0=Solid Ground
TTITLE1=Just The Two Of Us
TTITLE2=Back Where We Belong
TTITLE3=Cry Cry Darlin'
TTITLE4=I Ain't Never
TTITLE5=Every Drop Of Water
TTITLE6=Callin' Your Name
TTITLE7=When
TTITLE8=Can't Control The Wind
TTITLE9=Cat's In The Cradle
EXTD=
EXTT0=
EXTT1=
EXTT2=
EXTT3=
EXTT4=
EXTT5=
EXTT6=
EXTT7=
EXTT8=
EXTT9=
PLAYORDER=
